<?xml version="1.0" encoding="utf-8"?>
<!-- Generator: Adobe Illustrator 26.1.0, SVG Export Plug-In . SVG Version: 6.00 Build 0)  -->
<svg version="1.1" id="Layer_1" xmlns="http://www.w3.org/2000/svg" xmlns:xlink="http://www.w3.org/1999/xlink" x="0px" y="0px"
	 viewBox="0 0 100 76" style="enable-background:new 0 0 100 76;" xml:space="preserve">
<style type="text/css">
	.st0{fill-rule:evenodd;clip-rule:evenodd;fill:#007BEC;}
</style>
<path class="st0" d="M31.8,42.3c0.6,0,1.1-0.5,1.1-1.1l0,0v-8.7h5.4v8.7c0,3.6-2.9,6.5-6.5,6.5l0,0h-8.1c2.1-1,3.5-3,3.8-5.3h4.3
	V42.3z M79.4,27H74v14.1c0,0.6-0.5,1.1-1.1,1.2l0,0h-9.6l5.4-0.6V27h-5.4v20.6h9.6c3.6,0,6.5-2.9,6.5-6.5v-8.7L80,27l0,0l20-6v5.6
	L95.4,28c-1.7-1-3.7-1.5-5.6-1.4L80,27h9.8c5.7,0,10.3,4.6,10.3,10.3s-4.6,10.3-10.3,10.3H76c1.9-1.1,3.1-3.1,3.2-5.3h10.5
	c2.7,0,4.9-2.2,4.9-4.9s-2.2-4.9-4.9-4.9l0,0H79.4V27z M13.6,32.4H19V27h-5.4V32.4z M10.3,42.3c-2.7,0-4.9-2.2-4.9-4.9
	s2.2-4.9,4.9-4.9V27C4.6,27,0,31.6,0,37.3s4.6,10.3,10.3,10.3h10.9c3.6,0,6.5-2.9,6.5-6.5l0,0v-8.7h-5.4v8.7c0,0.6-0.5,1.1-1.1,1.2
	l0,0H10.3z M33,55.1h5.3v-5.3H33V55.1z M61.1,32.4h-5.4v8.7c-0.1,0.6-0.6,1.1-1.3,1c-0.5-0.1-0.9-0.5-1-1v-0.4l0,0v-8.3H48v8.7
	c-0.1,0.6-0.6,1.1-1.3,1c-0.5-0.1-0.9-0.5-1-1v-8.7h-5.4v8.7c0,0.6-0.5,1.1-1.2,1.1c-0.5,0-1-0.4-1.1-0.9c0.1,2-0.7,4-2.3,5.3
	c2.2,1.4,5.1,1.3,7.2-0.3c2.3,1.7,5.4,1.7,7.6,0c2.9,2.1,7,1.5,9.1-1.4c0.8-1.1,1.2-2.4,1.2-3.8L61.1,32.4z"/>
</svg>
